<?xml version="1.0" encoding="UTF-8" standalone="no"?>
<svg
   width="216"
   height="80"
   viewBox="0 0 216 80"
   fill="none"
   version="1.1"
   id="svg13"
   sodipodi:docname="logo.svg"
   inkscape:version="1.1.2 (b8e25be833, 2022-02-05)"
   xmlns:inkscape="http://www.inkscape.org/namespaces/inkscape"
   xmlns:sodipodi="http://sodipodi.sourceforge.net/DTD/sodipodi-0.dtd"
   xmlns="http://www.w3.org/2000/svg"
   xmlns:svg="http://www.w3.org/2000/svg">
  <sodipodi:namedview
     id="namedview15"
     pagecolor="#ffffff"
     bordercolor="#666666"
     borderopacity="1.0"
     inkscape:pageshadow="2"
     inkscape:pageopacity="0.0"
     inkscape:pagecheckerboard="0"
     showgrid="false"
     inkscape:zoom="6.7175926"
     inkscape:cx="112.31702"
     inkscape:cy="51.953136"
     inkscape:window-width="1920"
     inkscape:window-height="974"
     inkscape:window-x="-11"
     inkscape:window-y="-11"
     inkscape:window-maximized="1"
     inkscape:current-layer="svg13" />
  <g
     clip-path="url(#clip0_5_2)"
     id="g6"
     style="fill:#0f0d0d;fill-opacity:0">
    <path
       d="M 30.4871,4.07928e-4 C 28.9645,0.011014 27.4615,0.227241 26.0026,0.662945 24.5552,1.09574 23.2218,1.72304 22.0116,2.52192 c 1.3221,3.35665 4.6972,7.61758 8.6068,11.25488 4.0821,3.798 8.7626,7.0249 11.7854,8.4801 l 0.0354,0.0171 0.0348,0.0176 c 2.7777,1.4259 4.7443,3.6699 5.8794,6.1454 0.7311,1.594 1.1569,3.2636 1.4051,4.9609 2.2258,-1.7346 4.5721,-3.1236 6.9574,-4.1317 C 56.5344,26.134 55.8447,22.8495 54.5887,19.5608 51.9545,12.6634 47.3533,7.11059 42.1425,3.72417 38.3973,1.29024 34.3781,-0.0266205 30.487,4.07928e-4 Z M 17.4052,7.23735 c -0.8754,1.35723 -1.5933,2.87045 -2.1388,4.51395 -1.8217,5.4867 -1.6739,12.3694 0.9605,19.2671 1.5943,4.1745 3.91,7.8553 6.6447,10.8627 2.6942,0.8053 5.359,2.0497 7.8621,3.7381 1.934,1.3047 3.6574,2.7981 5.1509,4.4224 0.4874,0.1184 0.975,0.2193 1.4621,0.2987 0.928,-2.4186 2.1324,-4.8248 3.6167,-7.1591 0.8981,-1.4136 1.8821,-2.7708 2.9465,-4.064 0.0124,-0.8882 0.0052,-1.7488 -0.0371,-2.5705 -0.1147,-2.2221 -0.4708,-4.1227 -1.1232,-5.5449 -0.6519,-1.4222 -1.5015,-2.4158 -3.092,-3.2321 l 0.0702,0.0345 c -3.917,-1.886 -8.8084,-5.3324 -13.31,-9.5206 C 22.8394,14.9546 19.52,11.2257 17.4052,7.23717 Z M 65.302,30.4552 c -2.3126,0.0189 -4.759,0.5555 -7.2341,1.5821 -5.2801,2.1899 -10.5819,6.6288 -14.5033,12.7952 -2.0061,3.1548 -3.4477,6.444 -4.344,9.6691 3.5184,5.898 4.3825,12.6729 1.8479,18.3626 0.4097,0.5848 0.867,1.1348 1.3673,1.6444 3.7057,-3.1945 7.9764,-5.8407 11.0116,-8.5581 1.6591,-1.4848 2.9153,-2.9551 3.6133,-4.3553 0.698,-1.4005 0.9382,-2.6852 0.5753,-4.4345 l -0.0213,-0.1018 -0.014,-0.1027 c -1.3788,-9.9721 1.0401,-15.8324 4.5652,-19.4176 2.8346,-2.8825 5.6561,-4.4007 7.6026,-6.4051 -1.4063,-0.467 -2.9058,-0.6911 -4.4665,-0.6783 z m 9.7155,4.0976 c -2.8472,3.5359 -6.3576,5.1691 -8.4549,7.3021 -2.41,2.451 -4.0736,5.4014 -2.8618,14.2162 0.5835,2.9971 0.0707,5.8755 -1.1228,8.2697 -1.2151,2.4372 -3.0322,4.419 -5.0174,6.1963 -3.0155,2.6998 -6.494,5.0116 -9.4039,7.2669 3.3001,0.8565 7.0573,0.4421 10.883,-1.1449 5.2802,-2.1897 10.5823,-6.6288 14.5034,-12.7952 3.9216,-6.1666 5.691,-12.8483 5.4322,-18.5543 -0.198,-4.3639 -1.5469,-8.1031 -3.9576,-10.7566 z M 63.7008,56.0711 C 63.6905,56.0173 63.6823,55.9637 63.671,55.9098 l 0.0356,0.2041 C 63.705,56.0996 63.7031,56.0854 63.701,56.0711 Z M 15.7234,43.8529 c -3.1474,-0.0284 -6.11227,0.6612 -8.60768,2.0198 0.01712,5e-4 0.03201,0.0017 0.04913,0.0022 1.47756,0.0522 3.33245,-0.1219 5.46815,0.1694 2.1355,0.2915 4.6373,1.2604 6.5324,3.403 1.8953,2.1424 3.1948,5.1799 4.1,9.5421 l 0.0214,0.1016 0.0141,0.1029 c 0.4199,3.0437 2.3603,4.8044 5.7242,6.453 2.8702,1.4067 6.5552,2.4112 10.0531,3.4338 1.5666,-7.0137 -2.1504,-15.568 -10.069,-20.9094 -4.2697,-2.88 -8.9499,-4.2792 -13.2855,-4.3184 z M 1.84189,50.9431 c -4.32652,7.4465 -0.856745,18.3733 8.57871,24.7382 9.284,6.2627 20.5088,5.5213 25.9112,-0.9751 C 33.1753,73.8074 29.597,72.7868 26.3108,71.1764 22.0733,69.0997 18.0344,65.6099 17.2194,60.1902 16.4433,56.4781 15.4063,54.4972 14.5468,53.5255 13.6839,52.5492 13.011,52.3118 11.7989,52.1467 10.5867,51.9811 8.9208,52.0993 6.94793,52.0299 5.41045,51.9758 3.60657,51.7553 1.84189,50.9433 Z m 15.37771,9.247 c 0.0038,0.0171 0.0075,0.0328 0.0111,0.0501 l -0.0354,-0.2046 c 0.0072,0.052 0.0166,0.1026 0.0245,0.1546 z"
       fill="#c19977"
       id="path2"
       style="fill:#0f0d0d;fill-opacity:0" />
    <path
       d="M 93.725,73 V 12.25 H 102.2 V 40.9 l 13.95,-28.65 h 7.875 l -12,26.775 13.95,33.975 h -8.25 L 106.1,44.5 102.2,51.55 V 73 Z m 44.709,0.6 c -3.4,0 -6.025,-0.65 -7.875,-1.95 -1.85,-1.35 -3.15,-3.3 -3.9,-5.85 -0.7,-2.6 -1.05,-5.775 -1.05,-9.525 v -9.9 c 0,-3.85 0.375,-7.05 1.125,-9.6 0.75,-2.55 2.05,-4.475 3.9,-5.775 1.9,-1.3 4.5,-1.95 7.8,-1.95 3.65,0 6.325,0.75 8.025,2.25 1.75,1.5 2.9,3.675 3.45,6.525 0.55,2.8 0.825,6.175 0.825,10.125 v 3.525 h -17.1 v 8.7 c 0,1.75 0.15,3.175 0.45,4.275 0.35,1.1 0.875,1.925 1.575,2.475 0.75,0.5 1.7,0.75 2.85,0.75 1.2,0 2.1,-0.275 2.7,-0.825 0.65,-0.6 1.075,-1.425 1.275,-2.475 0.25,-1.1 0.375,-2.375 0.375,-3.825 v -2.625 h 7.8 v 1.65 c 0,4.35 -0.925,7.775 -2.775,10.275 -1.85,2.5 -5,3.75 -9.45,3.75 z m -4.8,-26.475 h 9.225 v -3.9 c 0,-1.8 -0.1,-3.3 -0.3,-4.5 -0.2,-1.25 -0.625,-2.175 -1.275,-2.775 -0.6,-0.65 -1.575,-0.975 -2.925,-0.975 -1.3,0 -2.3,0.3 -3,0.9 -0.65,0.6 -1.1,1.625 -1.35,3.075 -0.25,1.4 -0.375,3.35 -0.375,5.85 z M 166.176,73.6 c -3.2,0 -5.725,-0.65 -7.575,-1.95 -1.85,-1.3 -3.175,-3.15 -3.975,-5.55 -0.75,-2.4 -1.125,-5.225 -1.125,-8.475 v -12.6 c 0,-3.25 0.375,-6.075 1.125,-8.475 0.8,-2.4 2.125,-4.25 3.975,-5.55 1.85,-1.3 4.375,-1.95 7.575,-1.95 3.2,0 5.7,0.65 7.5,1.95 1.85,1.3 3.15,3.15 3.9,5.55 0.8,2.4 1.2,5.225 1.2,8.475 v 12.6 c 0,3.25 -0.4,6.075 -1.2,8.475 -0.75,2.4 -2.05,4.25 -3.9,5.55 -1.8,1.3 -4.3,1.95 -7.5,1.95 z m 0,-5.925 c 1.55,0 2.625,-0.45 3.225,-1.35 0.65,-0.9 1.025,-2.075 1.125,-3.525 0.15,-1.5 0.225,-3.05 0.225,-4.65 V 44.575 c 0,-1.65 -0.075,-3.2 -0.225,-4.65 -0.1,-1.45 -0.475,-2.625 -1.125,-3.525 -0.6,-0.95 -1.675,-1.425 -3.225,-1.425 -1.55,0 -2.65,0.475 -3.3,1.425 -0.65,0.9 -1.05,2.075 -1.2,3.525 -0.1,1.45 -0.15,3 -0.15,4.65 V 58.15 c 0,1.6 0.05,3.15 0.15,4.65 0.15,1.45 0.55,2.625 1.2,3.525 0.65,0.9 1.75,1.35 3.3,1.35 z M 184.912,73 V 35.575 h -5.175 V 29.65 h 5.175 V 27.4 c 0,-2.9 0.3,-5.3 0.9,-7.2 0.65,-1.9 1.725,-3.325 3.225,-4.275 1.5,-0.95 3.55,-1.425 6.15,-1.425 0.65,0 1.325,0.025 2.025,0.075 0.75,0.05 1.525,0.125 2.325,0.225 v 6 c -0.5,-0.1 -1,-0.175 -1.5,-0.225 -0.45,-0.05 -0.875,-0.075 -1.275,-0.075 -1.55,0 -2.575,0.425 -3.075,1.275 -0.5,0.85 -0.75,2.275 -0.75,4.275 v 3.6 h 17.7 V 73 h -8.025 V 35.575 h -9.675 V 73 Z m 18.45,-49.8 v -8.4 h 7.35 v 8.4 z"
       fill="#ffffff"
       id="path4"
       style="fill:#0f0d0d;fill-opacity:0" />
  </g>
  <defs
     id="defs11">
    <clipPath
       id="clip0_5_2">
      <rect
         width="216"
         height="80"
         fill="white"
         id="rect8" />
    </clipPath>
  </defs>
</svg>
